<mxfile host="app.diagrams.net" agent="Mozilla/5.0 (Windows NT 10.0; Win64; x64) AppleWebKit/537.36 (KHTML, like Gecko) Chrome/131.0.0.0 Safari/537.36" version="25.0.3">
  <diagram name="Page-1" id="j_cForH4aT4YbdO7vl7x">
    <mxGraphModel dx="2524" dy="738" grid="1" gridSize="10" guides="1" tooltips="1" connect="1" arrows="1" fold="1" page="1" pageScale="1" pageWidth="850" pageHeight="1100" math="0" shadow="0">
      <root>
        <mxCell id="0" />
        <mxCell id="1" parent="0" />
        <mxCell id="5x43yMXq3hHX1PN7otdd-27" value="" style="rounded=0;whiteSpace=wrap;html=1;" vertex="1" parent="1">
          <mxGeometry x="-170" y="230" width="1040" height="140" as="geometry" />
        </mxCell>
        <mxCell id="5x43yMXq3hHX1PN7otdd-25" value="" style="rounded=1;whiteSpace=wrap;html=1;" vertex="1" parent="1">
          <mxGeometry x="-110" y="90" width="950" height="110" as="geometry" />
        </mxCell>
        <mxCell id="5x43yMXq3hHX1PN7otdd-19" value="" style="edgeStyle=orthogonalEdgeStyle;rounded=0;orthogonalLoop=1;jettySize=auto;html=1;" edge="1" parent="1" source="5x43yMXq3hHX1PN7otdd-1" target="5x43yMXq3hHX1PN7otdd-13">
          <mxGeometry relative="1" as="geometry" />
        </mxCell>
        <mxCell id="5x43yMXq3hHX1PN7otdd-1" value="sterlin" style="shape=cylinder3;whiteSpace=wrap;html=1;boundedLbl=1;backgroundOutline=1;size=15;" vertex="1" parent="1">
          <mxGeometry x="90" y="120" width="60" height="80" as="geometry" />
        </mxCell>
        <mxCell id="5x43yMXq3hHX1PN7otdd-18" value="" style="edgeStyle=orthogonalEdgeStyle;rounded=0;orthogonalLoop=1;jettySize=auto;html=1;" edge="1" parent="1" source="5x43yMXq3hHX1PN7otdd-3" target="5x43yMXq3hHX1PN7otdd-10">
          <mxGeometry relative="1" as="geometry" />
        </mxCell>
        <mxCell id="5x43yMXq3hHX1PN7otdd-3" value="third partuy" style="shape=cylinder3;whiteSpace=wrap;html=1;boundedLbl=1;backgroundOutline=1;size=15;" vertex="1" parent="1">
          <mxGeometry x="-20" y="120" width="60" height="80" as="geometry" />
        </mxCell>
        <mxCell id="5x43yMXq3hHX1PN7otdd-24" value="" style="edgeStyle=orthogonalEdgeStyle;rounded=0;orthogonalLoop=1;jettySize=auto;html=1;entryX=0.192;entryY=0.05;entryDx=0;entryDy=0;entryPerimeter=0;" edge="1" parent="1" source="5x43yMXq3hHX1PN7otdd-5" target="5x43yMXq3hHX1PN7otdd-17">
          <mxGeometry relative="1" as="geometry" />
        </mxCell>
        <mxCell id="5x43yMXq3hHX1PN7otdd-5" value="" style="shape=cylinder3;whiteSpace=wrap;html=1;boundedLbl=1;backgroundOutline=1;size=15;" vertex="1" parent="1">
          <mxGeometry x="760" y="120" width="60" height="80" as="geometry" />
        </mxCell>
        <mxCell id="5x43yMXq3hHX1PN7otdd-23" value="" style="edgeStyle=orthogonalEdgeStyle;rounded=0;orthogonalLoop=1;jettySize=auto;html=1;" edge="1" parent="1" source="5x43yMXq3hHX1PN7otdd-6" target="5x43yMXq3hHX1PN7otdd-16">
          <mxGeometry relative="1" as="geometry" />
        </mxCell>
        <mxCell id="5x43yMXq3hHX1PN7otdd-6" value="" style="shape=cylinder3;whiteSpace=wrap;html=1;boundedLbl=1;backgroundOutline=1;size=15;" vertex="1" parent="1">
          <mxGeometry x="620" y="110" width="60" height="80" as="geometry" />
        </mxCell>
        <mxCell id="5x43yMXq3hHX1PN7otdd-22" value="" style="edgeStyle=orthogonalEdgeStyle;rounded=0;orthogonalLoop=1;jettySize=auto;html=1;" edge="1" parent="1" source="5x43yMXq3hHX1PN7otdd-7" target="5x43yMXq3hHX1PN7otdd-15">
          <mxGeometry relative="1" as="geometry" />
        </mxCell>
        <mxCell id="5x43yMXq3hHX1PN7otdd-7" value="" style="shape=cylinder3;whiteSpace=wrap;html=1;boundedLbl=1;backgroundOutline=1;size=15;" vertex="1" parent="1">
          <mxGeometry x="440" y="110" width="60" height="80" as="geometry" />
        </mxCell>
        <mxCell id="5x43yMXq3hHX1PN7otdd-20" value="" style="edgeStyle=orthogonalEdgeStyle;rounded=0;orthogonalLoop=1;jettySize=auto;html=1;" edge="1" parent="1" source="5x43yMXq3hHX1PN7otdd-9" target="5x43yMXq3hHX1PN7otdd-14">
          <mxGeometry relative="1" as="geometry" />
        </mxCell>
        <mxCell id="5x43yMXq3hHX1PN7otdd-9" value="iracle" style="shape=cylinder3;whiteSpace=wrap;html=1;boundedLbl=1;backgroundOutline=1;size=15;" vertex="1" parent="1">
          <mxGeometry x="270" y="110" width="60" height="80" as="geometry" />
        </mxCell>
        <mxCell id="5x43yMXq3hHX1PN7otdd-10" value="" style="shape=process;whiteSpace=wrap;html=1;backgroundOutline=1;" vertex="1" parent="1">
          <mxGeometry x="-50" y="260" width="120" height="60" as="geometry" />
        </mxCell>
        <mxCell id="5x43yMXq3hHX1PN7otdd-13" value="" style="shape=process;whiteSpace=wrap;html=1;backgroundOutline=1;" vertex="1" parent="1">
          <mxGeometry x="100" y="260" width="120" height="60" as="geometry" />
        </mxCell>
        <mxCell id="5x43yMXq3hHX1PN7otdd-14" value="" style="shape=process;whiteSpace=wrap;html=1;backgroundOutline=1;" vertex="1" parent="1">
          <mxGeometry x="280" y="270" width="120" height="60" as="geometry" />
        </mxCell>
        <mxCell id="5x43yMXq3hHX1PN7otdd-15" value="" style="shape=process;whiteSpace=wrap;html=1;backgroundOutline=1;" vertex="1" parent="1">
          <mxGeometry x="430" y="280" width="120" height="60" as="geometry" />
        </mxCell>
        <mxCell id="5x43yMXq3hHX1PN7otdd-16" value="" style="shape=process;whiteSpace=wrap;html=1;backgroundOutline=1;" vertex="1" parent="1">
          <mxGeometry x="590" y="290" width="120" height="60" as="geometry" />
        </mxCell>
        <mxCell id="5x43yMXq3hHX1PN7otdd-43" value="" style="edgeStyle=orthogonalEdgeStyle;rounded=0;orthogonalLoop=1;jettySize=auto;html=1;" edge="1" parent="1" source="5x43yMXq3hHX1PN7otdd-17" target="5x43yMXq3hHX1PN7otdd-42">
          <mxGeometry relative="1" as="geometry" />
        </mxCell>
        <mxCell id="5x43yMXq3hHX1PN7otdd-17" value="" style="shape=process;whiteSpace=wrap;html=1;backgroundOutline=1;" vertex="1" parent="1">
          <mxGeometry x="740" y="290" width="120" height="60" as="geometry" />
        </mxCell>
        <mxCell id="5x43yMXq3hHX1PN7otdd-26" value="Data Sources" style="text;strokeColor=none;align=center;fillColor=none;html=1;verticalAlign=middle;whiteSpace=wrap;rounded=0;" vertex="1" parent="1">
          <mxGeometry x="230" y="80" width="190" height="30" as="geometry" />
        </mxCell>
        <mxCell id="5x43yMXq3hHX1PN7otdd-28" value="" style="endArrow=classic;html=1;rounded=0;exitX=0.642;exitY=1.083;exitDx=0;exitDy=0;exitPerimeter=0;" edge="1" parent="1">
          <mxGeometry width="50" height="50" relative="1" as="geometry">
            <mxPoint x="17.039999999999964" y="324.98" as="sourcePoint" />
            <mxPoint x="10" y="410" as="targetPoint" />
          </mxGeometry>
        </mxCell>
        <mxCell id="5x43yMXq3hHX1PN7otdd-29" value="" style="endArrow=classic;html=1;rounded=0;" edge="1" parent="1">
          <mxGeometry width="50" height="50" relative="1" as="geometry">
            <mxPoint x="40" y="320" as="sourcePoint" />
            <mxPoint x="70" y="420" as="targetPoint" />
          </mxGeometry>
        </mxCell>
        <mxCell id="5x43yMXq3hHX1PN7otdd-30" value="" style="endArrow=classic;html=1;rounded=0;exitX=0.642;exitY=1.083;exitDx=0;exitDy=0;exitPerimeter=0;" edge="1" parent="1">
          <mxGeometry width="50" height="50" relative="1" as="geometry">
            <mxPoint x="-13" y="310" as="sourcePoint" />
            <mxPoint x="-20" y="395" as="targetPoint" />
          </mxGeometry>
        </mxCell>
        <mxCell id="5x43yMXq3hHX1PN7otdd-33" value="" style="rounded=1;whiteSpace=wrap;html=1;" vertex="1" parent="1">
          <mxGeometry x="-180" y="520" width="1050" height="160" as="geometry" />
        </mxCell>
        <mxCell id="5x43yMXq3hHX1PN7otdd-35" value="" style="shape=card;whiteSpace=wrap;html=1;" vertex="1" parent="1">
          <mxGeometry x="-140" y="550" width="80" height="100" as="geometry" />
        </mxCell>
        <mxCell id="5x43yMXq3hHX1PN7otdd-36" value="" style="shape=note;whiteSpace=wrap;html=1;backgroundOutline=1;darkOpacity=0.05;" vertex="1" parent="1">
          <mxGeometry y="550" width="80" height="100" as="geometry" />
        </mxCell>
        <mxCell id="5x43yMXq3hHX1PN7otdd-37" value="" style="shape=note;whiteSpace=wrap;html=1;backgroundOutline=1;darkOpacity=0.05;" vertex="1" parent="1">
          <mxGeometry x="200" y="560" width="80" height="100" as="geometry" />
        </mxCell>
        <mxCell id="5x43yMXq3hHX1PN7otdd-38" value="" style="shape=note;whiteSpace=wrap;html=1;backgroundOutline=1;darkOpacity=0.05;" vertex="1" parent="1">
          <mxGeometry x="280" y="560" width="80" height="100" as="geometry" />
        </mxCell>
        <mxCell id="5x43yMXq3hHX1PN7otdd-39" value="" style="shape=note;whiteSpace=wrap;html=1;backgroundOutline=1;darkOpacity=0.05;" vertex="1" parent="1">
          <mxGeometry x="410" y="570" width="80" height="100" as="geometry" />
        </mxCell>
        <mxCell id="5x43yMXq3hHX1PN7otdd-40" value="" style="shape=note;whiteSpace=wrap;html=1;backgroundOutline=1;darkOpacity=0.05;size=0;" vertex="1" parent="1">
          <mxGeometry x="710" y="540" width="80" height="100" as="geometry" />
        </mxCell>
        <mxCell id="5x43yMXq3hHX1PN7otdd-41" value="" style="shape=image;verticalLabelPosition=bottom;labelBackgroundColor=default;verticalAlign=top;aspect=fixed;imageAspect=0;image=data:image/png,iVBORw0KGgoAAAANSUhEUgAAAW8AAACJCAMAAADUiEkNAAABjFBMVEX///////7///z9/////f////r6//8ZR3scRIIANXYAMX6vv8nJ1dn//P/9//wZRoGltMJ4iqUAOXcDQHpdc57///cAOHIAK2gWR4Dd5u/k6/AAL3P1/v/t8/gAMnCgrL25xs3lsrIAOn7tixhUhpyJpq/pbBtpe5nDBSn128HibR3qdyz25Nluh6DqjQpUfY5Wao3u0b9jhpa/x898gqEAL2Zhj5v8/+4AKHPlhUsIP3wXSHiImrEWQIIhQHRqcpGnwcf258jpvXjlu4N1nqiJpadrm6GEl6J0h5f32rTljiHA0NJRhY6OpbHty6PtyJLrw5bkmU30igDzjADZmkJdhJ7go2vqlUHYnFS0xttEVo9GXonpbB/03rC4usxMVX6YpMEAGlscO2OLkqKQmp/r0sTgcy46WpPmZAD2agwuTHJvm7Fvi5BZZpXpgk7sgkbkhFrYs5e0VGLfv8ZHYH7QgEnNiJHMc4LNU2PTcIQANmbCOU7LACTBHjbHQFjmrbSxPkhZa3aHssI2cXT8e0UwAAATIElEQVR4nO1cjWPTRpafD2ksY334A9mSLMUmkJgEgk2Mk9axTbYXmgAJt+X2ug3hGgpXlgukvWvpbpuyx5b7x+/NyI4dW3JCkgVC5wdJbEsejX56897vvRkJIQkJCQkJCQkJCQkJCQkJCQkJCQkJCQkJCQkJCQkJCQkJCQkJCQkJCQkJCQkJCQkJCQmJQ0Hp++7B7wuS73cKKvl+d/B1j2Lyvnvx+4E3n6JE8v1PgY0UqlBz33tgjDnfSBEuBfOPKEZEVd9fFz8qMIRtG+gkocOmnGVvYRmpFOPuLpRR+HmPffyYwIhNTDBws/te2DfnG6vgUWj3s94riZOC2sQwVBPiozBn8Yv7E8TAqvssE+V9dfAjg0IY/cNn/3IVM2Hh3hTHysqtW1O36giLz4Ll5bI079MCZuj2xWszKAyZ3urq6tTK55zv1TIKRWFQvTT1gfGtqgoiJsSa/SBzVkAJRTOC7/AtJ5b7b3jFaJ/v99jDSIB0IoCuFzxDGOKbnwTh/psopGc7HyDfiqLaBGFQqR/YwDsUQ3yjvh4k5MPl2xDhmyogY993V94SI/6kyzfuV1A+QL6Ru5aZW9MpMc8Q3zYD3W0T6t++eHGGqrbBfEJ7+SWMWYOGmiW4dGmDhvmloRwSoLBq2+bYPQ4Hgz6ZXP2POZT+STNbSIFVnCH/bfsYrJhhevvOnds806SUiDQyuOtRDGfc8yfr6xvdc1fQOL4pDQeFSJVOAMUwxnHNoZ9LaEnO9xkq85jmvX+9dw9+Prtz8TPx6o/3woIJZ9VUkb5c5lheX38uXpRTASU4fgRj0AyqIpTaCbqFF8Wf8VLvLPLN7C+uXbt/8f6dO3fuX7z4b9fuX7v4J+E2sAiVCppavyTw75e6qILdj+HbMDBRTdtWT1Y8p5nKXEUHMTqmlbPIN1a//OKLP38FP3cuij9f/fmr/lagfKMa4tLCfPeVB6YfzwKhbmpzUwdRebIo9mAy8UmZETLmsp1Fvim1VZCwqn37zsXbyAavay9SWzEhThIT/vX28/v65EBNZQQEpQvJQgWp6GQsbCUS2TIaR/eZ5FtgWH/bimpA1PSN/sm+hR5MZ61c5uR8OxbwPWYgfTx8U8hzlOsz1230Hvk+n/v98I3Al8zOzs4ofRUt+T5FcMk9wLdpmNienn04o/Qn0N4934mPkm9Vgf+2QujMnWszTBWnx0/Anr0ye3UgcQO+N3rza5DJjKPhUL5FhQlEo2qaPGVVVYWMpqOhfSuQAnAhTyHZVIe1eBzfROU5mZC0JmM4ctaVN8pnEFVonhe+ILsaBKUK4d9j4kRNEzGGeJ2mJ7qOXQM2WcAQUWx6+9r9/6B2OEPJMAa+p68OnAfP58WZ6V/X8dgs+3C+KdvPPlWbvzdG+MbofNPK10EwERXyJ5ugiGPG8Q0M43ACENlqjMLh2UW3Qf5tyncd7KKpCHGmio5RxTBtgsEaQcl1k73j1hDSawHFECH/8CfI59Ue30jwPdBmMD+/Iay6tH0DrGfcCD6Ub8Zgk6fX67qH/FKp1FJGeh/yXUaBWy7XQfDbBI453GCsP1H4ZQzgAG7ALSqyE71d6i5FpUelkju4+gBTipkP6J2E4vvMZ0jBBHmeGGvHzS6W531qMoUqi4vwq0vIKN+I+YpC4PCl3RvAxon4hjNL1fLFZLKYrG0WsrlvGB4mXPCdy4i9koWtkk+7Rj6IWL4N6pdr2WTx3LlORY/uh0KZXmkXAY2Xm0vJ5Df1Az3ESHUf7yw99sVbanp7VuJxgMHSn6RTJWaegO8FsAFeJKTU6JU8GCbD/oRHLoPRkG917EKgw+NlUJvQnARHbs/SrAIbmTIQfDvthNW2LE3T8ksuuJbhZmL9N4ED5ET7VnMiE8mMSTONcJeEldQcbaI+eE5g6rZb0LSG3/3QK7StfADOKe0+2ajDNTwG34waBga+wXBN1ebuC/j2eYRgiC4+fTh7NRyJcCEMfsUVbEJHON82EWt/Bjo4SEY6ryUyaHBbfyPEGwP7O3nN0trNbLapaZZjfWKOFGRCvrVEbjLfzMFfLe+OhMtIvqGPcIClLBzAyk5OwgHyFR72BwKEYpogvCpJuI5aMzuZa7cdS5vQyQDhRDGJV7Ssgt91MsGElsgGsMd/+mtPgtTYikYcwqaWX/ih/xenQ67eu/7t9ZmZ6/eeXnn6R8h5OGYQ6BdeFOz5bx7yVHLAgB/NZTJzHGtrtWa7/ZfuO3ifQQPLKKAdA1WAbie/00qXKnt5y+J8D09BhnwXH8+V0q1ao+kkrB12NH1igqt42YRR0ahBZNiBVholeqCvBvCNSnBgLbuUSZdaiXxC05LuYDPAN/KKjtPnu6Al8gEE4noqtVnyxlZIY1FeBkw957/TQUiK/+2zZ7P/NX1l+uGVK0+np2efTU9PP/uSmSBcwLTPV27erNVqN8+fr3AjH2xrLtvM5XLw02yD2YCjyCX4u9xkW4OBsb8bSC+iFyzL2UuFx2vlNCeO79wjX4hPfacJxJZGHFQk38RG6aTlNJ06H4B+pal1Or46eM0hf0ZBwrGcbMvnWoallxzrML4bId8Y1dMl/Zj+e2NhYf7F8+fzCwsvXnih0qTXn80+fXjl6RXAU/H/ytPZLxkX5ip6sr29/WB3d3f7wYPtm8D3IEeZNudZ4/7BSSwlLO4nxHsngUg/8it8JINPbpS5/AVR5k20E3F858tUNZRFBXkdcD+dkbAYwTc0Y9OdtuV0XGQSOBoD2y2mDoRjAvtDjLH2WhC5TYZttOQ4R7RvcSrUPNZCVuYHoHjSCx7/07tc3/703Xffffr9f3/68Mr0959+/ynH/6hiaktx67qut3YrOgdPRQYaq0Ckn+BoTOSB6HaxEL6daHQOOHqK2J7l5CrIFqIXu8X2UhzfkO/YEMgNTNKTmpV3h08ggm+CFdVNQgjc7B2u1bSaaz3nKWBCf2pNx1qiXF2D1kQd61C+e/bNZ1PEfm/POFwk+A/xEoIYn70CVQ+yky+isW20+BTyS76QEI4Ao4gSyAAQ7cbL7rEGw5Tn7uNRVstV3P4HB3ikyM1rTrKOQm9M3KIF/mREW/f4JqCDgSEIV0v59PAJRPIN8XrScXKtHqCd5g7FA7YBUd9f0qx2Syy0gdzjKHwXev6kl+kcN98BvjHobsa4nu+Cr5cd1t/gSPf1ydHy+agewViuJ7VE0euWwlS3mGgXQX9G8Z3v1k8IZVvtpcnWcGNRfMM3WyBOnGYzHyLXcdp7/mCsBTML8lpnfwiorGMd1X+fvFIDfFMFdCC3DNYtIkTlO7wXnO9HDzjf46bfx+lvzndWW2r63QHO+dYO41s16VY7cXS+uTrJ5rN9fOMPFgzgyF4R5F09jHmC76P6k1Pg+0UAbBv4xx9++JF27TaCb+9l7QnltZ9QD56Q74lgwL6B72h/cmy+E9pf0qUBbPjqwIAECoOi1sl2M8qj8V04Lb71ZUIM30CvL796TZXY+onXOFcRlaDSzSfo+PUq4NvNgj9xlZCArj8ZzzemfqK9lDyS/4ZvlrIOqPXBBpk5OJlKhP/uTJbQW9j3hOD75DfYKJTPgYNhX7j86gI1RHuQXJn27NPZqwPNe/l2hdepestLxmAc3xir4DsT2RayVZtHe3cCskcWUZABvpOgTyDJUhSkF63ERH14l0i+EdpMJpy8a0OmbFLGoLc2zyj7XQC1xbaaVrsG58PvmLGj+MZgCZpTDED1YpBm3h4kqsEpmLcAA2u7cPnyBcgjxXsTm4vTvH7SZ9bLNytHXBc5lm8QsDXN0ToBf2eAeGtYWuJg/hcCEhVQMSCZTFtlL5sJq8CG94nWJ3BBQXDO8ep2GG0JNSgbyHdUqtJW1tLyIJJ4TdsO4+XBIYDsoGAlGq6KxB1M+h7s79undMfBEN9EZXRxenb2qtovZZ4W3/BpqqG1m1sBX9mqgp/S4vjm9q1ytevPdSABbKHhiYOofIeCvMtAMpNv7etVWjcOZIOEqio4Nc3q6MIxEppwhvkG5evvOA5vhStulJm0nC1o8J/Ct0kgYf3pp5+uqqdu32Ku9GVO05p7LR00ermV16w4+26+TOue55Z28m0ntxeMLPOOyufBPaJgz7GsbC0VGIbvlVs7j4f8FYVryI9rFW7U3cDV00tg396B9TK8zNNKtrXGJh8zNN1oO3sluDinyferHt/MUGx/UV2kp+9PxL1C3g4MYG0yydNPTncc31o7PwFZKgx9zWrUVWN4l+j6oKHgOngUMPFGp7PXmMi2Ez4emImF8EQVQmvZhKM1843C3kSW16uA74HryaihBB1InJK1R+lWbcKycjs+ISe/QY/1mhD2HTLKeN0Bwz9eFexuDrLZSu87Y+cvFZROOsC3bcbZN6bey3y7WwBPQC7YYSNTCcD3ZFvTHMdJaG3I5R9vUvtIfINSBY+yuQdJrCNK5+028G0fEBbgkQnxKw1R6IErAz3RCt6B0QNRGlH38Z7WzkHK1Gy3kzsu6lZITwRM/vo3gZ8vX/75b7/wV38Nj0wFOSidEah0rK3uK28s3xilz7UnM+NWRoGdpHeK5yYB584Vi52Wb4/M6eJUrdDIZoGtbHbicSug5misip3fIcjLFJJNgNbMNfZa/uiduhijeq04GSJZzM8FI5ec4KDVmODbs418yz8x1QKm/eury69eXe7iFbz8td85kEKZsFMw+hKTgqJPPNbTMVGwSWppa+vJuIdLEE6vm16dm5vLlMoe2JIxcgEZJGF6ulWpVFppncKoibiLIX6+GCwi2MzUtra2zrfuAlOjS5tVPt3vpngf1jZSLmQAIwtMeStUT2+sbqR10Jans8jcQL/8/MPPgF///vf/hT/w+pfuJqLaJkWlWoi2tRO+eOkxZQzfXTPkixLjdjl4RxlW7YgwRPmEU+8oWNwXdWS+KaNkcLbGxqN8U36rzH77fA3AyIA8kGic1q3sSm+cgP9+zStVqJvUu/U6JaZpd/cLeLwMwb1t/OCCzAKYVkdLfgfBHSRSAPxN1K5wbL74QCWYxJ1r/HofYJN/W6xeiC2dUnH8sBu495yAwe08Vwr7SJSoJTLHgYLDSWJf6BMDlIooX4Fdb9+EgK3aELbF7Wp7wLcq7lzDY/23KYLK+ESMT8dj0xT3iwCvKOqOPm6klHbT2WgZpn+STfL7SYbX3sB7zBcy9x4GEFV+EDfeYWISOL4ZHmZkJ1F8NQVEse7UMKS/4dDA9+5Nys2rN0F9dD34zuClAJ5y0pXm7x4MHcznsUlCvvuG9wHyzVcX8AF6/LUg7wvD9RPQyIJv3B/HHyDffI2UCHRnlO/9/FLg692b3Vfh4yI43x/WfXciFJq8fvdh9etw8EnC169evaZhnKs/AdzY3W21bmSesDD6e8nJyttUD3DMs68UfvthrDanjA0shhlpU1DcfzyIWFPIhQV8LNrE/PfbLl3tVZhj7uLsSqhThYmYeeEfv/7IwmM+egDg6x62H2zX/PAuV29nZ+2tqjUk0uqoePxBbIDjYkVB0QKR1x6YqGePIHxqS3fR0zGcizhc9HWi1DTZafsrU1GYoSoGC3uufw3I7N6s1+tf13tng4ZW7I4BEScdyXeoPtWYwn04/03j+CZCi8csLz62swuDFI4pjkSbzQmB+XJRxhQ+kYa6t16m9/13eFz1yHewUqbrQcxNyHBN9bt8QW8kbdj0XU/3qBLNt1hi4UVER/CDgR5QL0CBq8RYuOux6EuiMs/VPRbj/yg/5KnHY1AiGHIdo1csBJ8F+oSZIAy7feQ3Gx9J8YOdrM5P/RZEz3HSYLW6UE2xmGc6KF71xVo5LrlIPb9UnU9FH9b/LUU/30C31hgZXdgJfQn4faOR41NlU9UX1VQMp/7Cwsqt6E0nAAhArLCeZRCefHG++Yv9B7Sh2Lz6AAjxq29834hJMdNVjy1XvWgXjoFv1/dZbMibWo2xXpMtL3jr1aBajuCbwtVLLcynmR35VbTR8p9P0eiCJltL+exd6J/S7vnjPXcB03K1usFiVNrqG2T71bvRQxurXnXut7tx8YmilVb0ZQTL9dZXNj5fqfpUGXU4JmbV5XLVjzQYE03Nz1fdmEVMbGH9xeo74Xt7lx5v+oj6/nJVj9k2Ne8jHbbGiC9vXQ/8eD2w8jz6i6ZpoNWqXl4viRn3kc30bnVjav1uZJsY3Vpxq2Uarfvo/DKKHhenDCUwjuZAhgCh7rc3b8BjRIJ68/Nvqht+zNAxvP9zxz2VeWU1ehbaJAZcRZ9/O3QfQ2AvpnR95UV0l4BvMHGfRl5mtvD5ral38ZxLgpRjPb8UMhAvtRz/DAm/nBLrpyM3KsHdID4qm4qu46jNoDINxa8jVhbJ2XA5nBpBGTSGVx6Zkeu1iry7QTTfil6u109p2clYHNdn0VA8k5iqhiLq0TFXkvJS8Bi++X0hkefOE0vIlBgyo+Iwn4tEJJJs3qpB4xMwxGd9mHxuroSEhISEhISEhISEhISEhISEhISEhISEhISEhISEhISEhISEhISEhISEhISEhISEhITEB4T/B3T6BLhKSojZAAAAAElFTkSuQmCC;" vertex="1" parent="1">
          <mxGeometry x="540" y="680" width="150" height="55.99" as="geometry" />
        </mxCell>
        <mxCell id="5x43yMXq3hHX1PN7otdd-42" value="" style="shape=document;whiteSpace=wrap;html=1;boundedLbl=1;" vertex="1" parent="1">
          <mxGeometry x="940" y="270" width="120" height="80" as="geometry" />
        </mxCell>
      </root>
    </mxGraphModel>
  </diagram>
</mxfile>
